<?xml version="1.0" encoding="utf-8"?>
<!-- Generator: Adobe Illustrator 21.0.2, SVG Export Plug-In . SVG Version: 6.00 Build 0)  -->
<svg version="1.1" id="Layer_1" xmlns="http://www.w3.org/2000/svg" xmlns:xlink="http://www.w3.org/1999/xlink" x="0px" y="0px"
	 width="1400px" height="980px" viewBox="0 0 1400 980" enable-background="new 0 0 1400 980" xml:space="preserve">
<g>
	<path d="M398.8,238.9h-85.4c-4.7,0-8.5,3.8-8.5,8.5v61.9h-8.5v-86.7c0-4.7-3.8-8.5-8.5-8.5H65.2c-4.7,0-8.5,3.8-8.5,8.5v93.9
		c0,4.7,3.8,8.5,8.5,8.5h38.6v29.2c0,4.7,3.8,8.5,8.5,8.5h19.5c-0.2-1.3-0.3-2.5-0.3-3.8c0-16.6,13.5-30.1,30.1-30.1
		c16.6,0,30.1,13.5,30.1,30.1c0,1.3-0.1,2.6-0.3,3.8h106.6c-0.2-1.3-0.3-2.5-0.3-3.8c0-16.6,13.5-30.1,30.1-30.1
		c16.6,0,30.1,13.5,30.1,30.1c0,1.3-0.1,2.6-0.3,3.8h6.6h2.1h32.1c4.7,0,8.5-3.8,8.5-8.5V247.4C407.3,242.7,403.5,238.9,398.8,238.9
		z M394,295.1c0,2.9-2.7,5.1-5.6,4.5l-50.1-11c-2.1-0.5-3.6-2.3-3.6-4.5v-26.6c0-2.5,2.1-4.6,4.6-4.6h50.1c2.5,0,4.6,2.1,4.6,4.6
		V295.1z"/>
	<circle cx="161.7" cy="358.9" r="23.2"/>
	<circle cx="328.1" cy="358.9" r="23.2"/>
</g>
<g>
	<circle cx="830.2" cy="372.9" r="23.2"/>
	<path d="M886,363l-4.2-47.3c-0.3-3.7-3-6.9-6.7-7.7l-41.6-9.8c-2.9-0.7-5.2-2.8-6.2-5.6l-14.1-40c-1.2-3.5-4.5-5.8-8.2-5.8h-61.1
		c-4.8,0-8.7,3.9-8.7,8.7v75.1c-0.4-0.1-0.8-0.1-1.2-0.1H726V206.7c0-4.8-3.9-8.7-8.7-8.7H511.4c-4.8,0-8.7,3.9-8.7,8.7V334
		c0,4.8,3.9,8.7,8.7,8.7h28.8v21.4c0,4.8,3.9,8.7,8.7,8.7h25.3c0-16.6,13.5-30.1,30.1-30.1h0.1c16.6,0,30.1,13.5,30.1,30.1h108.1
		v-0.1c0.4,0.1,0.8,0.1,1.2,0.1l56.2,0c0,0,0,0,0,0c0-16.6,13.5-30.1,30.1-30.1c16.5,0,30,13.4,30.1,29.8l17.1-0.1
		C882.5,372.5,886.5,368.1,886,363z M808.1,299.5l-49.3-6.9c-3-0.4-5.2-3-5.2-6v-19.5c0-3.3,2.7-6,6-6H799c2.7,0,5.1,1.8,5.8,4.5
		l7.8,28.9C813.4,297.2,811,299.9,808.1,299.5z"/>
	<circle cx="604.3" cy="372.9" r="23.2"/>
</g>
<g>
	<circle cx="1048.3" cy="372.9" r="23.2"/>
	<circle cx="1269.9" cy="372.9" r="23.2"/>
	<path d="M1351.5,365.3l0-12.3c0-3.9-3.1-7-7-7l-6.2-28.8c-1.8-8.2-8.6-14.4-17-15.4l-71.5-8.2v0c-26.6-25-44.7-38.8-81.2-38.7
		l-57.3,0c-4.7,0-8.6,3.5-9.1,8.1l-4.9,41.1l-119.7,0.4c-6.8,0-12.3,5.6-12.3,12.4l0.1,44.4c0,6.8,5.6,12.3,12.4,12.3l39.4-0.1
		c0,0,0,0,0,0c-0.1-17.2,13.9-31.2,31.1-31.3c17.2-0.1,31.2,13.9,31.3,31.1c0,0,0,0,0,0l159.3-0.5c0,0,0,0,0,0
		c-0.1-17.2,13.9-31.2,31.1-31.3c17.2-0.1,31.2,13.9,31.3,31.1c0,0,0,0,0,0l43.4-0.1l0,0C1348.4,372.3,1351.5,369.1,1351.5,365.3z
		 M1158.4,304.1h-48.8l2.6-35.9c0-2.3,1.8-4.1,4.1-4.2l42.1-0.1V304.1z M1170.6,304.1V264c31.4,0.3,47.3,12,73.1,36.2l3,3.9H1170.6z
		"/>
</g>
<g>
	<circle cx="118.2" cy="765.4" r="16.6"/>
	<circle cx="165.6" cy="765.4" r="16.6"/>
	<path d="M434.1,743.9l-1.8-26.5c-0.4-5.5-4-10.3-9.2-12.2l-27-9.7l-25.2-38c-1.6-2.4-4.3-3.9-7.2-3.9h-41.9c-4.8,0-8.7,3.9-8.7,8.7
		v75.7h-4.4V637.7c0-11.9-9.6-21.5-21.5-21.5v13.6c5.2,0,9.4,4.2,9.4,9.4v98.7h-2.3h-40.2H48.5v22.2h48c2.4-9.8,11.2-17.1,21.7-17.1
		c10.5,0,19.3,7.3,21.7,17.1h3.9c2.4-9.8,11.2-17.1,21.7-17.1s19.3,7.3,21.7,17.1h67v9.7h59h36.6h7.8c-0.3-1.4-0.4-2.9-0.4-4.4
		c0-12.7,10.6-23,23.5-22.3c10.8,0.5,19.8,8.9,21.1,19.6c0.3,2.4,0.2,4.8-0.3,7.1h24.4h10h5.7v-25.9H434.1z M332.2,695.5v-30.9h31.5
		l19.4,30.9H332.2z"/>
	<circle cx="379.6" cy="765.4" r="16.6"/>
</g>
<g>
	<circle cx="667.9" cy="765.4" r="16.6"/>
	<circle cx="617.4" cy="765.4" r="16.6"/>
	<circle cx="715.3" cy="765.4" r="16.6"/>
	<circle cx="929.3" cy="765.4" r="16.6"/>
	<rect x="526.3" y="592" width="305.2" height="138.9"/>
	<path d="M983.9,743.9l-1.8-26.5c-0.4-5.5-4-10.3-9.2-12.2l-27-9.7l-25.2-38c-1.6-2.4-4.3-3.9-7.2-3.9h-41.9c-4.8,0-8.7,3.9-8.7,8.7
		v75.7h-4.4V637.7c0-11.9-9.6-21.5-21.5-21.5v13.6c5.2,0,9.4,4.2,9.4,9.4v98.7h-2.3H804H526.2v22.2h67.7c2.4-10.8,12-18.8,23.5-18.8
		s21.1,8.1,23.5,18.8h5.3c2.4-9.8,11.2-17.1,21.7-17.1s19.3,7.3,21.7,17.1h3.9c2.4-9.8,11.2-17.1,21.7-17.1
		c10.5,0,19.3,7.3,21.7,17.1h67v9.7h59h36.6h7.8c-0.3-1.4-0.4-2.9-0.4-4.4c0-12.7,10.6-23,23.5-22.3c10.8,0.5,19.8,8.9,21.1,19.6
		c0.3,2.4,0.2,4.8-0.3,7.1h24.4h10h5.7v-25.9H983.9z M881.9,695.5v-30.9h31.5l19.4,30.9H881.9z"/>
</g>
<g>
	<circle cx="1109.5" cy="758.9" r="23.1"/>
	<circle cx="1288.9" cy="758.9" r="23.1"/>
	<path d="M1329.2,719.6v-79.5c0-15.2-12.4-27.6-27.6-27.6h-19.8v0c-9.8-18.8-29.3-30.5-50.5-30.5h-9.3v30.5v107.1h-83.3
		c0.1-0.4,0.2-0.9,0.2-1.4v-1.1c0-3.4-2.8-6.2-6.2-6.2h-46.6c-3.4,0-6.2,2.8-6.2,6.2v1.1c0,0.5,0.1,0.9,0.2,1.4h-1.3
		c-4.1,0-7.5,3.3-7.5,7.5v35.7c0,3.8,2.8,6.9,6.5,7.4c-1.2-3.5-1.9-7.3-1.9-11.2c0-18.5,15-33.5,33.5-33.5c18.5,0,33.5,15,33.5,33.5
		c0,4-0.7,7.7-2,11.3h116.3c-1.3-3.5-2-7.3-2-11.3c0-18.5,15-33.5,33.5-33.5c18.5,0,33.5,15,33.5,33.5c0,4-0.7,7.7-2,11.3h20.4
		v-50.6H1329.2z M1315.4,682.2c0,5.5-5.3,9.5-10.6,7.9l-36.5-10.6c-3.5-1-6-4.3-6-7.9v-32.3c0-4.6,3.7-8.3,8.3-8.3h36.5
		c4.6,0,8.3,3.7,8.3,8.3V682.2z"/>
</g>
</svg>
